<svg version="1.1" id="Capa_1" xmlns="http://www.w3.org/2000/svg" x="0" y="0" viewBox="0 0 500 500" xml:space="preserve"><style>.st0{fill:none;stroke:#000;stroke-width:20;stroke-miterlimit:10}</style><path class="st0" d="M33 250.6c10.68-12.45 90.93-102.84 222.77-100.42 124.75 2.29 199.67 85.91 211.23 99.27-10.78 12.62-89.18 101.24-219.31 100.42-127.08-.81-203.48-86.3-214.69-99.27z"/><path class="st0" d="M346.09 245.03c2.56 54.64-43.53 99.99-94.27 101.14-49.44 1.11-96.45-39.91-97.96-93.15-1.61-56.57 48.86-101.16 100.33-99.14 45.57 1.79 89.51 40.06 91.9 91.15z"/><path class="st0" d="M298.81 247.48c1.3 27.76-22.11 50.8-47.89 51.38-25.12.57-48.99-20.27-49.77-47.32-.82-28.74 24.82-51.39 50.97-50.36 23.16.9 45.48 20.34 46.69 46.3z"/><path fill="none" stroke="#000" stroke-width="20" stroke-linecap="round" stroke-miterlimit="10" d="M117.84 378.12l264.32-256.24"/></svg>